<?xml version="1.0" encoding="UTF-8" standalone="no"?>
<!-- Created with Inkscape (http://www.inkscape.org/) -->

<svg
        width="64"
        height="64"
        viewBox="0 0 64 64"
        version="1.1"
        id="svg5"
        xml:space="preserve"
        inkscape:version="1.2 (dc2aeda, 2022-05-15)"
        sodipodi:docname="logo.inkscape.svg"
        xmlns:inkscape="http://www.inkscape.org/namespaces/inkscape"
        xmlns:sodipodi="http://sodipodi.sourceforge.net/DTD/sodipodi-0.dtd"
        xmlns="http://www.w3.org/2000/svg"
        xmlns:rdf="http://www.w3.org/1999/02/22-rdf-syntax-ns#"
        xmlns:cc="http://creativecommons.org/ns#"
        xmlns:dc="http://purl.org/dc/elements/1.1/"><sodipodi:namedview
     id="namedview7"
     pagecolor="#ffffff"
     bordercolor="#000000"
     borderopacity="0.25"
     inkscape:showpageshadow="2"
     inkscape:pageopacity="0.0"
     inkscape:pagecheckerboard="true"
     inkscape:deskcolor="#d1d1d1"
     inkscape:document-units="px"
     showgrid="false"
     inkscape:zoom="14.638496"
     inkscape:cx="25.275821"
     inkscape:cy="49.561102"
     inkscape:window-width="1909"
     inkscape:window-height="1565"
     inkscape:window-x="633"
     inkscape:window-y="410"
     inkscape:window-maximized="0"
     inkscape:current-layer="layer5" /><defs
     id="defs2" /><g
     inkscape:groupmode="layer"
     id="layer4"
     inkscape:label="big logo"
     style="display:inline;fill:#3771c8"><path
       d="m 62.189563,50.688737 c 1.977808,-1.455568 2.400035,-4.233373 0.944457,-6.211171 -1.455567,-1.977807 -4.233373,-2.400035 -6.21118,-0.944457 L 43.622696,53.333213 H 30.222549 c -0.977784,0 -1.777793,-0.800008 -1.777793,-1.777793 0,-0.977794 0.800009,-1.777803 1.777793,-1.777803 h 1.777803 7.111182 c 1.966688,0 3.555595,-1.588907 3.555595,-3.555595 0,-1.966689 -1.588907,-3.555586 -3.555595,-3.555586 H 32.000352 30.222549 21.52245 c -3.23336,0 -6.366729,1.100005 -8.888984,3.11114 L 7.6445204,49.777617 H 3.5555858 C 1.5888975,49.777617 0,51.366525 0,53.333213 v 7.111192 C 0,62.411093 1.5888975,64 3.5555858,64 H 21.333565 39.167089 c 3.222262,0 6.366739,-1.03335 8.966768,-2.944483 l 14.066825,-10.36678 z m -40.778224,-0.91112 c 0.03336,0 0.06671,0 0.100002,0 0,0 0,0 0,0 -0.03336,0 -0.06662,0 -0.100002,0 z"
       id="path182"
       style="display:inline;fill:#4080e2;fill-opacity:1;stroke-width:1"
       inkscape:label="hand" /><path
       d="m 42.000384,10.000113 c 0,4.550051 -6.091735,12.658476 -8.766765,16.000184 -0.641675,0.800007 -1.833353,0.800007 -2.466696,0 C 28.091893,22.658589 22.000157,14.550164 22.000157,10.000113 22.000157,4.4750508 26.475209,0 32.000271,0 37.525335,0 42.000384,4.4750508 42.000384,10.000113 Z m 0.666675,6.700077 c 0.291667,-0.575008 0.55834,-1.150013 0.800009,-1.716687 0.04166,-0.09999 0.08332,-0.208336 0.124996,-0.308336 l 9.666782,-3.866711 c 1.31668,-0.525006 2.741697,0.441671 2.741697,1.858353 v 22.566924 c 0,0.816675 -0.500006,1.550016 -1.258348,1.858353 L 42.667059,41.917142 Z M 19.466797,11.525131 c 0.200001,1.175014 0.600005,2.35836 1.066678,3.458372 0.241668,0.566674 0.50834,1.141679 0.800008,1.716687 V 37.650426 L 10.741697,41.892141 C 9.4250169,42.417147 8.0000001,41.45047 8.0000001,40.033787 V 17.466863 c 0,-0.816674 0.5000039,-1.550017 1.2583464,-1.858355 L 19.475129,11.525131 Z m 15.850178,16.141848 c 1.158345,-1.450015 2.975034,-3.808375 4.683387,-6.416737 V 42.025474 L 24.00018,37.450425 V 21.250242 c 1.708353,2.608362 3.52504,4.966722 4.683387,6.416737 1.708351,2.13336 4.925057,2.13336 6.633408,0 z m -3.316704,-15.00017 a 3.3333714,3.3333714 0 1 0 0,-6.6667412 3.3333714,3.3333714 0 1 0 0,6.6667412 z"
       id="path299"
       style="display:inline;fill:#4080e2;fill-opacity:1;stroke-width:1"
       inkscape:label="map" /></g><g
     inkscape:groupmode="layer"
     id="layer5"
     inkscape:label="small logo"
     style="display:none;fill:#3771c8"><path
       d="m 62.189563,50.688737 c 1.977808,-1.455568 2.400035,-4.233373 0.944457,-6.211171 -1.455567,-1.977807 -4.233373,-2.400035 -6.21118,-0.944457 L 43.622696,53.333213 H 30.222549 c -1.660914,0 -2.324297,-1.02387 -2.324297,-2.753098 0,-1.79755 0.731696,-2.802498 2.324297,-2.802498 h 1.777803 7.111182 c 1.966688,0 3.555595,-1.588907 3.555595,-3.555595 0,-1.966689 -1.588907,-3.555586 -3.555595,-3.555586 H 32.000352 30.222549 21.52245 c -3.23336,0 -6.503355,2.602892 -9.02561,4.614027 L 7.6445204,49.777617 H 3.5555858 C 1.5888975,49.777617 0,51.366525 0,53.333213 v 7.111192 C 0,62.411093 1.5888975,64 3.5555858,64 H 21.333565 39.167089 c 3.222262,0 6.366739,-1.03335 8.966768,-2.944483 l 14.066825,-10.36678 z m -40.778224,-2.91112 h 0.100002 v 0 z"
       id="path511"
       style="display:inline;fill:#4080e2;fill-opacity:1;stroke-width:1"
       inkscape:label="hand"
       sodipodi:nodetypes="csccssscsssccsccsssscsccccccc" /><path
       d="M 39.903057,41.156817 23.903229,36.581861 V 4.4738628 l 15.999828,4.5749551 z m 2.666633,-0.1 V 8.848819 L 53.161249,4.6071953 c 1.316653,-0.5249936 2.741637,0.4416631 2.741637,1.8583199 V 34.365218 c 0,0.81666 -0.499993,1.54998 -1.258313,1.858311 L 42.56969,41.048485 Z M 9.1617146,9.4071507 21.236586,4.5821942 V 36.790197 L 10.645027,41.023483 C 9.3283748,41.548478 7.9033911,40.581821 7.9033911,39.165164 V 11.265462 c 0,-0.816661 0.4999925,-1.5499806 1.2583235,-1.8583113 z"
       id="path314"
       style="display:inline;fill:#4080e2;fill-opacity:1;stroke-width:0.99999"
       transform="translate(0.09660866,-4.4623397)"
       inkscape:label="map" /></g><metadata
     id="metadata245"><rdf:RDF><cc:Work
         rdf:about=""><dc:source>Made using Font Awesome Free icons</dc:source></cc:Work></rdf:RDF></metadata></svg>
