<?xml version="1.0" encoding="UTF-8"?>
<svg width="64" height="64" version="1.1" viewBox="0 0 64 64" xml:space="preserve" xmlns="http://www.w3.org/2000/svg" xmlns:cc="http://creativecommons.org/ns#" xmlns:dc="http://purl.org/dc/elements/1.1/" xmlns:rdf="http://www.w3.org/1999/02/22-rdf-syntax-ns#"><g display="none" fill="#4080e2"><path d="m62.19 50.689c1.9778-1.4556 2.4-4.2334 0.94446-6.2112-1.4556-1.9778-4.2334-2.4-6.2112-0.94446l-13.3 9.8001h-13.4c-0.97778 0-1.7778-0.80001-1.7778-1.7778 0-0.97779 0.80001-1.7778 1.7778-1.7778h8.889c1.9667 0 3.5556-1.5889 3.5556-3.5556 0-1.9667-1.5889-3.5556-3.5556-3.5556h-17.589c-3.2334 0-6.3667 1.1-8.889 3.1111l-4.9889 4h-4.0889c-1.9667 0-3.5556 1.5889-3.5556 3.5556v7.1112c0 1.9667 1.5889 3.5556 3.5556 3.5556h35.612c3.2223 0 6.3667-1.0334 8.9668-2.9445l14.067-10.367zm-40.778-0.91112h0.1-0.1z" display="inline"/><path d="m42 10c0 4.5501-6.0917 12.658-8.7668 16-0.64168 0.80001-1.8334 0.80001-2.4667 0-2.675-3.3417-8.7668-11.45-8.7668-16 0-5.5251 4.4751-10 10-10 5.5251 0 10 4.4751 10 10zm0.66668 6.7001c0.29167-0.57501 0.55834-1.15 0.80001-1.7167 0.04166-0.09999 0.08332-0.20834 0.125-0.30834l9.6668-3.8667c1.3167-0.52501 2.7417 0.44167 2.7417 1.8584v22.567c0 0.81668-0.50001 1.55-1.2583 1.8584l-12.075 4.8251zm-23.2-5.1751c0.2 1.175 0.6 2.3584 1.0667 3.4584 0.24167 0.56667 0.50834 1.1417 0.80001 1.7167v20.95l-10.592 4.2417c-1.3167 0.52501-2.7417-0.44167-2.7417-1.8584v-22.567c0-0.81667 0.5-1.55 1.2583-1.8584l10.217-4.0834zm15.85 16.142c1.1583-1.45 2.975-3.8084 4.6834-6.4167v20.775l-16-4.575v-16.2c1.7084 2.6084 3.525 4.9667 4.6834 6.4167 1.7084 2.1334 4.9251 2.1334 6.6334 0zm-3.3167-15a3.3334 3.3334 0 1 0 0-6.6667 3.3334 3.3334 0 1 0 0 6.6667z" display="inline"/></g><g fill="#4080e2"><path d="m62.19 50.689c1.9778-1.4556 2.4-4.2334 0.94446-6.2112-1.4556-1.9778-4.2334-2.4-6.2112-0.94446l-13.3 9.8001h-13.4c-1.6609 0-2.3243-1.0239-2.3243-2.7531 0-1.7976 0.7317-2.8025 2.3243-2.8025h8.889c1.9667 0 3.5556-1.5889 3.5556-3.5556 0-1.9667-1.5889-3.5556-3.5556-3.5556h-17.589c-3.2334 0-6.5034 2.6029-9.0256 4.614l-4.8523 4.4972h-4.0889c-1.9667 0-3.5556 1.5889-3.5556 3.5556v7.1112c0 1.9667 1.5889 3.5556 3.5556 3.5556h35.612c3.2223 0 6.3667-1.0334 8.9668-2.9445l14.067-10.367zm-40.778-2.9111h0.1z"/><path transform="translate(.096609 -4.4623)" d="m39.903 41.157-16-4.575v-32.108l16 4.575zm2.6666-0.1v-32.208l10.592-4.2416c1.3167-0.52499 2.7416 0.44166 2.7416 1.8583v27.9c0 0.81666-0.49999 1.55-1.2583 1.8583l-12.075 4.825zm-33.408-31.65 12.075-4.825v32.208l-10.592 4.2333c-1.3167 0.525-2.7416-0.44166-2.7416-1.8583v-27.9c0-0.81666 0.49999-1.55 1.2583-1.8583z" stroke-width=".99999"/></g><metadata><rdf:RDF><cc:Work rdf:about=""><dc:source>Made using Font Awesome Free icons</dc:source></cc:Work></rdf:RDF></metadata></svg>
